<?xml version="1.0" encoding="UTF-8"?>
<svg width="49px" height="48px" viewBox="0 0 49 48" version="1.1" xmlns="http://www.w3.org/2000/svg" xmlns:xlink="http://www.w3.org/1999/xlink">
    <title>dialog</title>
    <g id="Desktop" stroke="none" stroke-width="1" fill="none" fill-rule="evenodd">
        <g id="011---Shawflex" transform="translate(-677.000000, -2425.000000)" fill="#0055B8" fill-rule="nonzero">
            <g id="Values" transform="translate(0.000000, 1812.000000)">
                <g id="list" transform="translate(170.000000, 252.000000)">
                    <g id="Item-/-Feature-/-Default-Copy-4" transform="translate(470.000000, 323.000000)">
                        <g id="dialog" transform="translate(37.766440, 38.630137)">
                            <path d="M42.1943784,0.00164881206 L19.035911,0.00164881206 C16.3116888,-0.0378947514 14.0691464,2.13459745 14.0220023,4.85893835 L14.0220023,16.6542326 L5.12987944,16.6542326 C2.37415607,16.5841665 0.0805990073,18.7558532 0,21.5115308 L0,36.3375969 C0.0805990073,39.0932745 2.37415607,41.2649612 5.12987944,41.1948952 L5.25825087,41.1948952 L5.25825087,45.8549041 C5.25699306,46.2614193 5.48928394,46.6325278 5.85546215,46.8090104 C6.22164035,46.9854931 6.65661765,46.9359799 6.97377274,46.6817141 L13.8593909,41.1948952 L28.2284378,41.1948952 C30.9850116,41.2350895 33.2543401,39.036961 33.3022555,36.2802681 L33.3022555,24.5423114 L33.4648669,24.5423114 L40.3487937,30.0278419 C40.6660651,30.2817188 41.1007744,30.3312166 41.4669906,30.1551642 C41.8332068,29.9791119 42.0660799,29.6086851 42.066007,29.2023203 L42.066007,24.5423114 L42.1943784,24.5423114 C44.9500984,24.6123775 47.2436541,22.4406961 47.3242578,19.6850219 L47.3242578,4.85895587 C47.2436635,2.10327476 44.9501051,-0.0684171544 42.1943784,0.00164881206 L42.1943784,0.00164881206 Z M31.5495052,36.2802681 C31.5023245,38.0691461 30.0173129,39.4829108 28.2284378,39.4419995 L13.6646954,39.4419995 C13.393888,39.4420186 13.1310941,39.5338975 12.9192595,39.7026213 L7.01100116,44.4105634 L7.01100116,40.6064627 C7.00585072,39.9593025 6.47791807,39.4384079 5.83080428,39.4419995 L5.12987944,39.4419995 C3.34204525,39.512183 1.83317696,38.1251741 1.75275029,36.3376144 L1.75275029,21.5115484 C1.83317229,19.7239852 3.34204198,18.3369711 5.12987944,18.4071546 L14.0220023,18.4071546 L14.0220023,19.6850219 C14.0691416,22.4093663 16.3116854,24.5818637 19.035911,24.5423202 L31.5495052,24.5423202 L31.5495052,36.2802681 Z M45.5715075,19.6850219 C45.4910855,21.4725851 43.9822158,22.8595992 42.1943784,22.7894157 L41.4934535,22.7894157 C40.8463431,22.7858242 40.3184119,23.3067134 40.3132567,23.9538702 L40.3132567,27.7579709 L34.4075661,23.0521761 C34.1952586,22.8822582 33.9314842,22.7895959 33.6595624,22.789407 L19.035911,22.789407 C17.2793874,22.8296769 15.8211578,21.4415486 15.7747526,19.6850219 L15.7747526,4.85895587 C15.821153,3.10242572 17.279384,1.71429221 19.035911,1.75456205 L42.1943784,1.75456205 C43.9822093,1.68437845 45.4910762,3.07138215 45.5715075,4.85893835 L45.5715075,19.6850219 Z" id="Shape"></path>
                            <ellipse id="Oval" cx="10.5165017" cy="28.9245814" rx="1.31456272" ry="1.31467836"></ellipse>
                            <ellipse id="Oval" cx="16.6511278" cy="28.9245814" rx="1.31456272" ry="1.31467836"></ellipse>
                            <ellipse id="Oval" cx="22.7857538" cy="28.9245814" rx="1.31456272" ry="1.31467836"></ellipse>
                            <path d="M28.9203798,7.88971895 L21.9093786,7.88971895 C21.42537,7.88971895 21.0330035,7.49731791 21.0330035,7.01326671 C21.0330035,6.5292155 21.42537,6.13681447 21.9093786,6.13681447 L28.9203798,6.13681447 C29.4043884,6.13681447 29.7967549,6.5292155 29.7967549,7.01326671 C29.7967549,7.49731791 29.4043884,7.88971895 28.9203798,7.88971895 Z" id="Path"></path>
                            <path d="M39.4368815,13.1484324 L21.9093786,13.1484324 C21.42537,13.1484324 21.0330035,12.7560313 21.0330035,12.2719801 C21.0330035,11.7879289 21.42537,11.3955279 21.9093786,11.3955279 L39.4368815,11.3955279 C39.9208901,11.3955279 40.3132567,11.7879289 40.3132567,12.2719801 C40.3132567,12.7560313 39.9208901,13.1484324 39.4368815,13.1484324 Z" id="Path"></path>
                            <path d="M39.4368815,18.4071458 L36.0957013,18.4071458 C35.6116927,18.4071458 35.2193261,18.0147448 35.2193261,17.5306936 C35.2193261,17.0466423 35.6116927,16.6542413 36.0957013,16.6542413 L39.4368815,16.6542413 C39.9208901,16.6542413 40.3132567,17.0466423 40.3132567,17.5306936 C40.3132567,18.0147448 39.9208901,18.4071458 39.4368815,18.4071458 Z" id="Path"></path>
                            <path d="M32.4258804,18.4071458 L21.9093786,18.4071458 C21.42537,18.4071458 21.0330035,18.0147448 21.0330035,17.5306936 C21.0330035,17.0466423 21.42537,16.6542413 21.9093786,16.6542413 L32.4258804,16.6542413 C32.909889,16.6542413 33.3022555,17.0466423 33.3022555,17.5306936 C33.3022555,18.0147448 32.909889,18.4071458 32.4258804,18.4071458 Z" id="Path"></path>
                        </g>
                    </g>
                </g>
            </g>
        </g>
    </g>
</svg>