<?xml version="1.0" encoding="UTF-8"?>
<svg width="52px" height="52px" viewBox="0 0 52 52" version="1.1" xmlns="http://www.w3.org/2000/svg" xmlns:xlink="http://www.w3.org/1999/xlink">
    <title>clean-energy</title>
    <g id="Desktop" stroke="none" stroke-width="1" fill="none" fill-rule="evenodd">
        <g id="011---Shawflex" transform="translate(-205.000000, -2099.000000)" fill="#0055B8" fill-rule="nonzero">
            <g id="Values" transform="translate(0.000000, 1812.000000)">
                <g id="list" transform="translate(170.000000, 252.000000)">
                    <g id="Icon-/-Tick" transform="translate(35.177627, 35.178082)">
                        <g id="clean-energy" transform="translate(0.000000, 0.000000)">
                            <path d="M30.1185502,8.54367664 C30.1204937,7.44370527 29.4040568,6.47140634 28.3529424,6.14751566 C27.3018281,5.82362498 26.1624656,6.22407722 25.545065,7.13440149 L13.3416259,25.0493695 C13.0604211,25.4445951 12.9211357,25.9233163 12.9464077,26.4077278 C13.0472863,27.591534 14.0461416,28.495896 15.2340132,28.4789221 L22.3962636,28.4789221 L21.6619172,43.1153621 L21.6619172,43.2361818 C21.6599736,44.3361531 22.3764106,45.3084521 23.427525,45.6323428 C24.4786392,45.9562334 25.6180018,45.5557812 26.2354024,44.6454569 L38.4388415,26.7304889 C38.719491,26.3349948 38.8587189,25.8564709 38.8340597,25.3721306 C38.7331811,24.1883244 37.7343258,23.2839624 36.5464541,23.3009363 L29.3842038,23.3009363 L30.1185502,8.66449631 C30.1185502,8.64982535 30.1185502,8.5583476 30.1185502,8.54367664 L30.1185502,8.54367664 Z M36.5464541,25.0269316 C36.8149452,25.0104592 37.0544037,25.1946742 37.1073533,25.4584304 C37.1138845,25.5591922 37.0848752,25.6590538 37.0253757,25.7406306 L24.8089927,43.6676806 C24.6152565,43.957071 24.2525909,44.0821138 23.9216903,43.9736123 C23.5907896,43.8651107 23.3725575,43.5495928 23.3877607,43.2016619 L24.1186554,28.5652219 C24.1423094,28.0926986 23.9709769,27.6311798 23.6447193,27.2885792 C23.3184617,26.9459786 22.865885,26.7523351 22.3928119,26.7529268 L15.2305615,26.7529268 C14.9621879,26.7690166 14.7229517,26.5849726 14.6696624,26.321428 C14.6631312,26.2206662 14.6921405,26.1208046 14.75164,26.0392278 L26.9714746,8.11217782 C27.1652109,7.82278747 27.5278764,7.69774457 27.8587771,7.80624614 C28.1896778,7.91474771 28.4079098,8.2302656 28.3927067,8.57819654 L27.6626749,23.2146365 C27.6390208,23.6871598 27.8103534,24.1486786 28.1366109,24.4912792 C28.4628685,24.8338798 28.9154453,25.0275233 29.3885184,25.0269316 L36.5464541,25.0269316 Z" id="Shape"></path>
                            <path d="M25.8902337,0 C16.813929,-0.000901262956 8.40006262,4.75199513 3.71518373,12.5264308 C-0.969695163,20.3008664 -1.24124325,29.9611913 2.99950891,37.9865671 C1.08037097,40.0284195 1.37894189,43.509752 3.69761259,45.8217227 C6.65570828,48.7869826 10.6441325,49.1710166 12.5114952,49.1710166 C12.8586518,49.1733291 13.2057028,49.1580633 13.5513158,49.1252777 C13.8811359,49.0893347 14.1611446,48.8674671 14.2715651,48.5545815 C14.3819857,48.2416957 14.303262,47.8932056 14.0690689,47.6581817 C13.3484101,46.8716387 12.7963202,45.9459258 12.446776,44.9380131 C12.2737856,44.2914342 12.2056118,43.6212915 12.2448523,42.9531186 C12.4268644,41.0732734 11.751611,39.211566 10.406829,37.8855964 C8.88278441,36.1713919 6.36658699,35.7588288 4.37500615,36.8966011 C-0.863049445,26.6389241 1.87651401,14.109066 10.9173848,6.97392299 C19.9582556,-0.161220058 32.7806317,0.0870040996 41.5386282,7.56670957 C50.2966246,15.046415 52.5492801,27.6729158 46.9182169,37.7201812 C41.2871538,47.7674465 29.3418187,52.4351798 18.3914438,48.8672414 C17.9452438,48.7398909 17.4782281,48.9882277 17.3342827,49.4293894 C17.1903373,49.8705512 17.4210042,50.3465729 17.8564324,50.5069369 C27.5783664,53.6738125 38.2533347,50.8212864 45.1002043,43.2269555 C51.9470739,35.6326246 53.6829647,24.7194191 49.5304012,15.3751741 C45.3778379,6.03092898 36.1148754,0.00645135612 25.8902337,0 L25.8902337,0 Z M6.75753305,37.9667182 C7.68809976,38.003981 8.5641226,38.4157325 9.18665772,39.1084641 C10.2078477,40.111915 10.7002833,41.5356965 10.517283,42.9557075 C10.4725896,43.8094563 10.5708782,44.6646723 10.8080877,45.4860166 C11.0378145,46.1613422 11.3456642,46.8075069 11.7253735,47.4113644 C9.19414771,47.3185996 6.78005643,46.3213406 4.9212356,44.600581 C3.4240664,43.1101841 3.05042129,41.0001549 3.9323273,39.5951947 C4.86137311,41.0824229 5.93861675,42.4717442 7.14757367,43.7418984 C7.35711646,43.9772879 7.67829956,44.0797238 7.98541829,44.0091147 C8.29253697,43.9385057 8.53674649,43.7060813 8.6224681,43.4028082 C8.7081898,43.0995349 8.6217901,42.7736459 8.39708434,42.5526876 C7.19331011,41.2877255 6.12950103,39.8965794 5.22412113,38.403395 C5.6878744,38.1252959 6.21685791,37.9746548 6.75753305,37.9667182 L6.75753305,37.9667182 Z" id="Shape"></path>
                        </g>
                    </g>
                </g>
            </g>
        </g>
    </g>
</svg>