<?xml version="1.0" encoding="UTF-8"?>
<svg width="53px" height="53px" viewBox="0 0 53 53" version="1.1" xmlns="http://www.w3.org/2000/svg" xmlns:xlink="http://www.w3.org/1999/xlink">
    <title>success</title>
    <g id="Desktop" stroke="none" stroke-width="1" fill="none" fill-rule="evenodd">
        <g id="014---Careers" transform="translate(-175.000000, -2945.000000)" fill="#0055B8" fill-rule="nonzero">
            <g id="Values" transform="translate(0.000000, 2773.000000)">
                <g id="list" transform="translate(170.000000, 167.000000)">
                    <g id="Icon-/-Tick" transform="translate(5.177627, 5.178082)">
                        <g id="success" transform="translate(-0.000000, -0.000000)">
                            <path d="M26.3196025,0 C11.8073786,0 0,11.8074049 0,26.3219178 C0,40.8364307 11.8073786,52.6438356 26.3196025,52.6438356 C40.8318265,52.6438356 52.6392051,40.8364307 52.6392051,26.3219178 C52.6392051,11.8074049 40.8318265,0 26.3196025,0 Z M26.3196025,50.6190727 C12.9239371,50.6190727 2.02458481,39.7187616 2.02458481,26.3219178 C2.02458481,12.925074 12.9239371,2.02476291 26.3196025,2.02476291 C39.715268,2.02476291 50.6146203,12.925074 50.6146203,26.3219178 C50.6146203,39.7187616 39.715268,50.6190727 26.3196025,50.6190727 Z" id="Shape"></path>
                            <path d="M38.7222091,15.525882 L23.1642871,33.0299573 L13.7914717,25.5312479 C13.356186,25.1819763 12.7174295,25.2538554 12.3692009,25.6891794 C12.01996,26.1265282 12.0908205,26.7633161 12.5271185,27.1125877 L22.6500426,35.2116394 C22.8363044,35.3604594 23.060021,35.4333509 23.2827253,35.4333509 C23.562118,35.4333509 23.8404984,35.3179394 24.0399201,35.0931907 L40.2365985,16.8703246 C40.6081099,16.4532234 40.570655,15.8123859 40.1525783,15.4418543 C39.7334892,15.0692979 39.0947327,15.1067561 38.7222091,15.525882 Z" id="Path"></path>
                        </g>
                    </g>
                </g>
            </g>
        </g>
    </g>
</svg>