<?xml version="1.0" encoding="UTF-8"?>
<svg width="51px" height="50px" viewBox="0 0 51 50" version="1.1" xmlns="http://www.w3.org/2000/svg" xmlns:xlink="http://www.w3.org/1999/xlink">
    <title>settings</title>
    <g id="Desktop" stroke="none" stroke-width="1" fill="none" fill-rule="evenodd">
        <g id="011---Shawflex" transform="translate(-676.000000, -2101.000000)" fill="#0055B8" fill-rule="nonzero">
            <g id="Values" transform="translate(0.000000, 1812.000000)">
                <g id="list" transform="translate(170.000000, 252.000000)">
                    <g id="Item-/-Feature-/-Default-Copy" transform="translate(470.000000, 0.000000)">
                        <g id="settings" transform="translate(36.903502, 37.767123)">
                            <path d="M30.3322633,28.6952055 L29.4304933,28.6952055 C29.0913048,28.6958204 28.7878797,28.4841932 28.6713669,28.165574 C28.5713524,27.9032178 28.4639598,27.6466007 28.3483693,27.3924432 C28.2047009,27.0833548 28.2702842,26.7173884 28.5123275,26.477476 L29.1550435,25.8338836 C30.1091777,24.8712619 30.1074356,23.3188513 29.1509446,22.3584842 L26.8342155,20.0415514 C25.8727032,19.0855911 24.3198143,19.0855911 23.3583021,20.0415514 L22.715586,20.6835041 C22.4751823,20.9246463 22.109863,20.9901329 21.8006994,20.8474767 C21.5465642,20.731876 21.2899696,20.624474 21.0268168,20.5195315 C20.706586,20.4038283 20.4935428,20.0992492 20.4947725,19.7586986 L20.4947725,18.8568493 C20.4947725,17.4984388 19.3936908,16.3972603 18.0353998,16.3972603 L14.7562362,16.3972603 C13.3979451,16.3972603 12.2968635,17.4984388 12.2968635,18.8568493 L12.2968635,19.7586986 C12.2974783,20.097917 12.0858698,20.4013687 11.7672786,20.5178918 C11.5049455,20.6179151 11.2483509,20.7253171 10.9942157,20.8409178 C10.6850521,20.9838814 10.3196303,20.9183949 10.0793291,20.6769452 L9.43579325,20.0341726 C8.47438347,19.0788272 6.9221094,19.0788272 5.96069963,20.0341726 L3.64397055,22.3584842 C2.68809436,23.3200811 2.68809436,24.8731066 3.64397055,25.8347034 L4.28586682,26.477476 C4.52791008,26.7173884 4.59349336,27.0833548 4.449825,27.3924432 C4.33423448,27.6466007 4.22684188,27.9032178 4.12600759,28.1663938 C4.00867502,28.4868578 3.70238065,28.6986899 3.36114269,28.6952055 L2.4593727,28.6952055 C1.10108165,28.6952055 0,29.796384 0,31.1547945 L0,34.4342466 C0,35.7926571 1.10108165,36.8938356 2.4593727,36.8938356 L3.36114269,36.8938356 C3.70033117,36.8932207 4.00375628,37.1048479 4.12026906,37.4234671 C4.22028355,37.6858233 4.32767616,37.9424404 4.44326667,38.1965979 C4.58693503,38.5056863 4.52135176,38.8716527 4.27930849,39.1115651 L3.63659243,39.7551575 C2.68133108,40.7166519 2.68133108,42.2690625 3.63659243,43.2305568 L5.95332151,45.5474897 C6.91483376,46.50345 8.46772267,46.50345 9.42923492,45.5474897 L10.071951,44.905537 C10.3123547,44.6643948 10.677674,44.5989082 10.9868376,44.7415644 C11.2409728,44.8571651 11.4975674,44.9645671 11.7607202,45.0695096 C12.0825906,45.1838805 12.2974783,45.488767 12.2968635,45.8303425 L12.2968635,46.7321918 C12.2968635,48.0906023 13.3979451,49.1917808 14.7562362,49.1917808 L18.0353998,49.1917808 C19.3936908,49.1917808 20.4947725,48.0906023 20.4947725,46.7321918 L20.4947725,45.8303425 C20.4941576,45.4911241 20.7057662,45.1876723 21.0243574,45.0711493 C21.2866905,44.971126 21.543285,44.863724 21.7974202,44.7481233 C22.1065839,44.6051597 22.4720057,44.6706462 22.7123069,44.9120959 L23.3558427,45.5548685 C24.3185847,46.5086766 25.8704488,46.5068319 26.8309363,45.5507692 L29.1476654,43.2338363 C30.1035416,42.2722395 30.1035416,40.719214 29.1476654,39.7576171 L28.5057691,39.1148445 C28.2637259,38.8749321 28.1981426,38.5089658 28.341811,38.1998774 C28.4574015,37.9457199 28.5647941,37.6891027 28.6697273,37.4259267 C28.7854203,37.1056677 29.0899726,36.8926058 29.4304933,36.8938356 L30.3322633,36.8938356 C31.6905543,36.8938356 32.791636,35.7926571 32.791636,34.4342466 L32.791636,31.1547945 C32.791636,29.796384 31.6905543,28.6952055 30.3322633,28.6952055 Z M31.1520542,34.4342466 C31.1520542,34.8870159 30.7849928,35.2541096 30.3322633,35.2541096 L29.4304933,35.2541096 C28.4113907,35.2579015 27.4993733,35.8878637 27.1350788,36.8397247 C27.0481809,37.0692863 26.9542124,37.295261 26.8530707,37.5177514 C26.4315957,38.4482959 26.6271158,39.5424031 27.3449452,40.2692116 L27.9860217,40.9111644 C28.306355,41.2311159 28.3066624,41.7502942 27.9866366,42.0706557 C27.9864316,42.0708606 27.9862267,42.0710656 27.9860217,42.0712705 L25.6692926,44.3882034 C25.3491643,44.7082574 24.8302366,44.7082574 24.5101083,44.3882034 L23.8673922,43.7462507 C23.140955,43.0277432 22.0465342,42.8321034 21.116174,43.2543329 C20.8940106,43.355176 20.6677484,43.4494603 20.4398465,43.5363658 C19.4887866,43.9005899 18.8592896,44.8118676 18.8551907,45.8303425 L18.8551907,46.7321918 C18.8551907,47.1849611 18.4881293,47.5520548 18.0353998,47.5520548 L14.7562362,47.5520548 C14.3035067,47.5520548 13.9364453,47.1849611 13.9364453,46.7321918 L13.9364453,45.8303425 C13.9326538,44.8111503 13.3027469,43.8990527 12.3509697,43.534726 C12.1214282,43.4478205 11.8954734,43.3538438 11.6730026,43.2526932 C10.7425399,42.831386 9.64863146,43.0270259 8.92178435,43.744611 L8.27988808,44.3857438 C7.95996468,44.7061053 7.4408321,44.7064128 7.1204988,44.3863587 C7.12029385,44.3861538 7.12008891,44.3859488 7.11988396,44.3857438 L4.80315488,42.0712705 C4.48312901,41.751114 4.48312901,41.2321408 4.80315488,40.9119842 L5.44505115,40.2692116 C6.16288056,39.5424031 6.35840069,38.4482959 5.93692569,37.5177514 C5.83609141,37.2955685 5.74181546,37.0692863 5.65491762,36.8413644 C5.29154531,35.889196 4.38014277,35.2586188 3.36114269,35.2541096 L2.4593727,35.2541096 C2.00664317,35.2541096 1.6395818,34.8870159 1.6395818,34.4342466 L1.6395818,31.1547945 C1.6395818,30.7020252 2.00664317,30.3349315 2.4593727,30.3349315 L3.36114269,30.3349315 C4.38024525,30.3311396 5.29226262,29.7011774 5.6565572,28.7493164 C5.74345504,28.5197548 5.83742357,28.2937801 5.93856527,28.0712897 C6.36004027,27.1407452 6.16441767,26.046638 5.44669073,25.3198295 L4.80233509,24.6778767 C4.48200179,24.3579252 4.48169437,23.8387469 4.80172024,23.5183854 C4.80192519,23.5181805 4.80213014,23.5179755 4.80233509,23.5177705 L7.11906417,21.2008377 C7.43919251,20.8807836 7.95812015,20.8807836 8.2782485,21.2008377 L8.92096456,21.8427904 C9.64740177,22.5612979 10.7418226,22.7569377 11.6721828,22.3347082 C11.8943462,22.2338651 12.1206084,22.1395808 12.3485103,22.0526753 C13.3009024,21.6895785 13.931834,20.7779933 13.9364453,19.7586986 L13.9364453,18.8568493 C13.9364453,18.40408 14.3035067,18.0369863 14.7562362,18.0369863 L18.0353998,18.0369863 C18.4881293,18.0369863 18.8551907,18.40408 18.8551907,18.8568493 L18.8551907,19.7586986 C18.8589822,20.7778908 19.488889,21.6899884 20.4406663,22.0543151 C20.6702077,22.1412205 20.8961626,22.2351973 21.1186334,22.3363479 C22.0489935,22.7585774 23.1434144,22.5629376 23.8698516,21.8444301 L24.5117479,21.2032973 C24.8331059,20.8853954 25.350394,20.8853954 25.671752,21.2032973 L27.9884811,23.5202301 C28.308507,23.8403866 28.308507,24.3593599 27.9884811,24.6795164 L27.3465848,25.322289 C26.6288579,26.0490976 26.4332353,27.1432048 26.8547103,28.0737493 C26.9555446,28.2959322 27.0498205,28.5222144 27.1367183,28.7501363 C27.5009104,29.7012799 28.412108,30.3308322 29.4304933,30.3349315 L30.3322633,30.3349315 C30.7849928,30.3349315 31.1520542,30.7020252 31.1520542,31.1547945 L31.1520542,34.4342466 L31.1520542,34.4342466 Z" id="Shape"></path>
                            <path d="M23.7575403,32.4665753 C23.7493423,32.2698082 23.7354059,32.073861 23.711632,31.8787336 C23.6853987,31.6688486 23.6542466,31.4606034 23.6107977,31.2564575 C23.582105,31.1228199 23.5443946,30.9908219 23.5083238,30.8580041 C23.4624155,30.6891123 23.4107687,30.5226801 23.3533833,30.3587075 C23.3132136,30.2447466 23.2714043,30.1316055 23.2287751,30.0192842 C23.123227,29.7567231 23.0025128,29.5004134 22.8672473,29.2518925 C22.8565901,29.2330356 22.8500317,29.212539 22.8393744,29.1936822 C22.6261263,28.8140856 22.3791643,28.4542682 22.1015626,28.1188418 C22.0777887,28.0893267 22.0507356,28.0614514 22.0261419,28.0327562 C21.9130107,27.8991185 21.7966004,27.7695801 21.6744516,27.6457808 C21.6105079,27.5793719 21.543285,27.5170623 21.4760622,27.453113 C21.3940831,27.3768658 21.312104,27.3014384 21.2301249,27.2292904 C21.1306228,27.1428973 21.0292761,27.0592713 20.9259825,26.9784123 L20.7915368,26.878389 C19.5230128,25.9281678 17.9806787,25.4149336 16.395818,25.4157524 C16.3138389,25.4157524 16.2318598,25.4280514 16.1498807,25.4313308 C15.9752653,25.43625 15.79983,25.4460884 15.623575,25.4641253 C15.5309386,25.4739637 15.4374824,25.4846219 15.344846,25.4977397 C15.0775942,25.5328914 14.8123919,25.5824931 14.5504687,25.6461349 C10.603073,26.6662495 8.22998331,30.6936216 9.25000814,34.6413645 C9.92223667,37.2427898 11.9544983,39.2735905 14.5562072,39.943726 C14.5693239,39.943726 14.5832603,39.9478253 14.5971967,39.9511048 C14.880332,40.0217155 15.1671564,40.0765438 15.4563376,40.1150774 C15.6473489,40.1388534 15.8383602,40.1437726 16.0301912,40.1527911 C16.1580786,40.15935 16.2761285,40.1782068 16.4097544,40.1782068 C16.6433948,40.1782068 16.8860529,40.1626295 17.1336298,40.1380336 C17.1598631,40.1380336 17.1860964,40.1306548 17.2156089,40.1273753 C17.4148181,40.105239 17.6164866,40.075724 17.8222541,40.0347308 C17.9042332,40.0191534 17.9804738,39.9986568 18.0591737,39.9806199 C18.2034569,39.9470055 18.3469203,39.9117514 18.4944827,39.8682986 C18.6092534,39.8338644 18.720745,39.7936911 18.8330563,39.7543377 C18.9453677,39.7149842 19.061778,39.6723514 19.1781883,39.6280788 C19.2945986,39.5838062 19.3921537,39.5329747 19.4979067,39.4837829 C19.6356316,39.4206534 19.7725367,39.3583438 19.9078022,39.2845562 L19.9127209,39.2845562 C20.6777908,38.8749321 21.3844505,38.3645674 22.013845,37.7669897 C22.1838492,37.6083462 22.3317189,37.4273615 22.4532529,37.2291596 C23.0930997,36.203306 23.5134484,35.0560102 23.687858,33.8595226 C23.7108122,33.701289 23.7313069,33.5430555 23.7436038,33.3815425 C23.7550809,33.2331473 23.7632788,33.0855719 23.766558,32.9379966 C23.766558,32.8912644 23.773158,32.8469918 23.773158,32.8002596 C23.7739361,32.6846589 23.762459,32.5780767 23.7575403,32.4665753 Z M22.123697,33.0035856 C22.123697,33.0716342 22.1179585,33.1396829 22.1138595,33.2069116 C22.0991033,33.4053185 22.0736897,33.6037253 22.0400783,33.8029521 C21.7336815,35.5075497 20.6754339,36.9833032 19.1593331,37.8202808 C19.057679,37.8735719 18.9576645,37.9235836 18.8576501,37.9694959 L18.7896074,38.0022904 C18.3133089,38.2185293 17.8105721,38.3707164 17.2943088,38.4548548 C17.258238,38.4605938 17.2213474,38.4671527 17.1844568,38.4720719 C17.081983,38.4868295 16.9811487,38.4991274 16.8811342,38.5081459 C16.7491479,38.519624 16.6163417,38.5261829 16.4810762,38.5286425 C16.4236909,38.5286425 16.3671253,38.5286425 16.3097399,38.5286425 C16.1157569,38.5263878 15.9220813,38.5143973 15.729328,38.4925685 L15.6309531,38.4810904 C15.4055106,38.4515753 15.1819126,38.4094549 14.9611839,38.3548315 C11.890862,37.5688903 10.0389544,34.4425477 10.824724,31.3719557 C11.343959,29.3429997 12.9271802,27.7579996 14.9554454,27.2366692 L14.9554454,27.2358493 C15.4264152,27.1170717 15.9100919,27.0564018 16.395818,27.0554795 C16.6301757,27.0568117 16.8643285,27.0726966 17.0967392,27.1030315 C17.1590433,27.1104103 17.2205276,27.1218884 17.2820119,27.1309068 C17.4590868,27.1587822 17.634522,27.1940363 17.8074979,27.2383089 C17.8640635,27.2530664 17.9206291,27.2661842 17.9763748,27.2817616 C18.4122986,27.4076106 18.8319291,27.5842911 19.226556,27.8081137 C19.2896799,27.8450075 19.3511642,27.8835411 19.4134683,27.9220747 C19.5429952,28.004061 19.6684233,28.0860473 19.7922117,28.1795116 C19.8586147,28.2278836 19.9258376,28.2754356 19.9897813,28.327087 C20.1506652,28.4556005 20.3046835,28.5924152 20.4513236,28.7370185 C20.5095287,28.7960486 20.5628151,28.8608178 20.6193807,28.9223075 C20.7136566,29.0247904 20.8054732,29.1297329 20.8931909,29.2404144 C20.9538554,29.3166616 21.0120605,29.3953685 21.0694459,29.4748952 C21.151425,29.5929555 21.2334041,29.7159349 21.3071853,29.8405541 C21.3481748,29.9086027 21.3891643,29.9750116 21.4309737,30.0447 C21.5367267,30.239315 21.6309002,30.4399765 21.7129818,30.6456596 C21.7457734,30.7276459 21.7736463,30.8096322 21.8031588,30.8916185 C21.8564452,31.0424733 21.9023535,31.1949678 21.9425232,31.3491021 C21.963018,31.4310884 21.9859721,31.5040562 22.0031877,31.5835829 C22.051043,31.8051509 22.0857817,32.0293834 22.1073012,32.2550507 C22.1122199,32.3149007 22.1122199,32.3755705 22.1163189,32.4354205 C22.1277959,32.623989 22.1310751,32.8133774 22.123697,33.0035856 Z" id="Shape"></path>
                            <path d="M46.7280812,17.2171233 L44.1498389,17.2171233 C43.8060391,17.2206077 43.498515,17.0040614 43.3857938,16.6792932 C43.1315561,15.9177429 42.8239296,15.174947 42.4651686,14.4566445 C42.3128924,14.1464289 42.3763237,13.7734937 42.6225684,13.5310192 L44.4507021,11.7002651 C45.4102674,10.739898 45.4102674,9.18359307 44.4507021,8.22322603 L40.9649512,4.74290753 C40.0046687,3.78325788 38.4485006,3.78325788 37.488218,4.74290753 L35.6609041,6.56956233 C35.4187584,6.8157262 35.0463684,6.87947055 34.73618,6.72779589 C34.0178382,6.36715865 33.2749027,6.05786533 32.5129071,5.80217055 C32.1868352,5.6905667 31.9687708,5.38270813 31.9718451,5.03805822 L31.9718451,2.45958904 C31.9718451,1.10117851 30.8707634,0 29.5124724,0 L24.593727,0 C23.2354359,0 22.1343543,1.10117851 22.1343543,2.45958904 L22.1343543,5.03805822 C22.1378384,5.38188827 21.9214136,5.68943938 21.5965714,5.80217055 C20.8349857,6.05776284 20.0922551,6.3668512 19.3741183,6.72697603 C19.0639299,6.879778 18.6908226,6.8163411 18.4485744,6.56956233 L16.6179813,4.74126781 C15.6565715,3.78438519 14.1026579,3.78438519 13.1412481,4.74126781 L9.66205554,8.22076644 C8.70197792,9.18123596 8.70197792,10.7381558 9.66205554,11.6986253 L12.3501499,14.3918753 C12.6752995,14.7069077 13.1943296,14.6987091 13.5093342,14.3734284 C13.8166533,14.0561414 13.8173707,13.5523356 13.5109738,13.2342288 L10.8212399,10.5417986 C10.501214,10.2216421 10.501214,9.70266884 10.8212399,9.38251233 L14.3004324,5.9030137 C14.6205608,5.58295967 15.1394884,5.58295967 15.4596168,5.9030137 L17.2910296,7.73130822 C18.0320181,8.47676866 19.1674285,8.66308253 20.1078312,8.19371096 C20.757208,7.86853279 21.4286168,7.58936943 22.1171387,7.35827055 C23.1109302,7.02181926 23.77824,6.08738039 23.7739361,5.03805822 L23.7739361,2.45958904 C23.7739361,2.00681969 24.1409974,1.63972603 24.593727,1.63972603 L29.5124724,1.63972603 C29.9652019,1.63972603 30.3322633,2.00681969 30.3322633,2.45958904 L30.3322633,5.03805822 C30.3280618,6.08717543 30.9953716,7.02130685 31.9890607,7.35745068 C32.67789,7.58865205 33.3496061,7.86802038 33.999188,8.19371096 C34.9397955,8.66062295 36.0736688,8.47410411 36.8151697,7.73048836 L38.6465826,5.9030137 C38.9667109,5.58295967 39.4856385,5.58295967 39.8057669,5.9030137 L43.2849595,9.38333219 C43.604473,9.70338622 43.604473,10.2217446 43.2849595,10.5417986 L41.4568258,12.3733726 C40.7121482,13.1148362 40.5259532,14.2498341 40.9944637,15.1904219 C41.3196133,15.8398559 41.5987521,16.5113237 41.8298306,17.1999062 C42.1660474,18.1939901 43.1005065,18.8613586 44.1498389,18.8568493 L46.7280812,18.8568493 C47.1808108,18.8568493 47.5478721,19.223943 47.5478721,19.6767123 L47.5478721,24.5958904 C47.5478721,25.0486598 47.1808108,25.4157534 46.7280812,25.4157534 L44.1498389,25.4157534 C43.1008139,25.4115516 42.1667647,26.0789201 41.8306504,27.0726966 C41.5995719,27.7615865 41.3201256,28.4333617 40.9944637,29.0830007 C40.526773,30.0235885 40.7133779,31.1579715 41.4576456,31.8992301 L43.2857793,33.7308041 C43.6058051,34.0509606 43.6058051,34.5699339 43.2857793,34.8900904 L39.8049471,38.369589 C39.4849212,38.6891307 38.9666084,38.6891307 38.6465826,38.369589 L35.9527497,35.6812582 C35.637745,35.3559776 35.1187149,35.3477789 34.7935653,35.6628113 C34.4683133,35.9778437 34.4601154,36.4969194 34.77512,36.8220976 C34.7816784,36.8288615 34.7884416,36.8356253 34.7952049,36.8421842 L37.488218,39.5305151 C38.4485006,40.4901647 40.0046687,40.4901647 40.9649512,39.5305151 L44.4441438,36.0518363 C45.4042214,35.0913668 45.4042214,33.5344469 44.4441438,32.5739774 L42.6184695,30.744863 C42.3725322,30.5025935 42.3088959,30.1302732 42.4602498,29.8200575 C42.8208553,29.1016526 43.1301215,28.3586517 43.3857938,27.596589 C43.4973878,27.2704885 43.8052193,27.052405 44.1498389,27.0554795 L46.7280812,27.0554795 C48.0863723,27.0554795 49.1874539,25.9543009 49.1874539,24.5958904 L49.1874539,19.6767123 C49.1874539,18.3183018 48.0863723,17.2171233 46.7280812,17.2171233 Z" id="Path"></path>
                            <path d="M34.5886176,14.6001205 C30.4242848,10.4441324 23.6819145,10.4441324 19.5175817,14.6001205 C19.2030894,14.9258111 19.2121071,15.4448869 19.5377691,15.7594068 C19.855438,16.0662406 20.3590971,16.0662406 20.6767661,15.7594068 C24.1747113,12.2139092 29.8842475,12.1756831 33.4294333,15.6739361 C36.974619,19.1721891 37.0128418,24.8822276 33.5148965,28.4277252 C33.4866137,28.4564204 33.458126,28.4849106 33.4294333,28.5131959 C33.1037713,28.8278183 33.0947536,29.3467916 33.4093484,29.6724822 C33.7239432,29.9981728 34.2428708,30.0071913 34.5685327,29.6925688 C34.575296,29.6860099 34.5820593,29.6792461 34.5886176,29.6724822 C38.7442402,25.507783 38.7442402,18.7648197 34.5886176,14.6001205 Z" id="Path"></path>
                        </g>
                    </g>
                </g>
            </g>
        </g>
    </g>
</svg>