<?xml version="1.0" encoding="UTF-8"?>
<svg width="205px" height="66px" viewBox="0 0 205 66" version="1.1" xmlns="http://www.w3.org/2000/svg" xmlns:xlink="http://www.w3.org/1999/xlink">
    <title>Logo / Color</title>
    <g id="Desktop" stroke="none" stroke-width="1" fill="none" fill-rule="evenodd">
        <g id="001---Home-#4" transform="translate(-41.000000, -31.000000)" fill="#223A6E" fill-rule="nonzero">
            <g id="Logo-/-Color" transform="translate(41.000000, 31.000000)">
                <g id="g10" transform="translate(102.126189, 32.841771) scale(-1, 1) rotate(-180.000000) translate(-102.126189, -32.841771) translate(0.000000, 0.000000)">
                    <polyline id="path12" points="54.9801835 58.3907474 65.4380275 58.3907474 77.4125806 32.2971102 89.3871337 58.3907474 100.169774 58.3907474 100.169774 21.9683327 93.0713365 21.9683327 93.0713365 50.9976828 79.8506385 21.9683327 74.8118266 21.9683327 61.8074607 50.5083475 61.8074607 21.9683327 54.9801835 21.9683327 54.9801835 58.3907474"></polyline>
                    <path d="M125.797689,29.3070467 L125.797689,32.7322144 C122.384647,33.0582585 119.675429,33.1671392 118.103892,33.1671392 C113.985832,33.1671392 112.685455,32.4056919 112.685455,30.0681951 C112.685455,27.5677061 114.202761,26.8067968 117.291007,26.8067968 C120.325617,26.8067968 122.763675,27.5132956 125.797689,29.3070467 Z M106.020874,29.7421509 C106.020874,35.8306204 109.272413,38.0051251 117.941195,38.0051251 C119.945993,38.0051251 122.601575,37.8962444 125.797689,37.5702002 L125.797689,37.7876627 C125.797689,42.0279707 124.064052,43.277976 118.266588,43.277976 C114.636021,43.277976 111.926803,42.7888799 108.892789,41.7560978 L108.4047,47.4097022 C112.143731,48.4424843 115.124109,48.8229389 119.133704,48.8229389 C129.26556,48.8229389 132.517099,46.2680395 132.517099,38.0051251 L132.517099,21.9683327 L125.797689,21.9683327 L125.797689,24.6865233 C121.842326,22.2402055 119.458501,21.3161846 115.503138,21.3161846 C108.892789,21.3161846 106.020874,23.9797255 106.020874,29.7421509" id="path14"></path>
                    <path d="M142.161462,30.4487095 L142.161462,43.1677201 L136.042181,43.1677201 L136.042181,48.6041013 L142.37839,48.6041013 L142.37839,56.6466235 L148.880275,56.6466235 L148.880275,48.6041013 L156.465609,48.6041013 L156.465609,43.1677201 L148.880275,43.1677201 L148.880275,31.210097 C148.880275,28.3286751 149.584696,27.6221165 152.293914,27.6221165 L157.329746,27.6221165 L157.329746,21.9683327 L150.506044,21.9683327 C144.491652,21.9683327 142.161462,24.1430167 142.161462,30.4487095" id="path16"></path>
                    <path d="M165.890064,30.4487095 L165.890064,43.1677201 L159.770783,43.1677201 L159.770783,48.6041013 L166.106992,48.6041013 L166.106992,56.6466235 L172.609473,56.6466235 L172.609473,48.6041013 L180.194807,48.6041013 L180.194807,43.1677201 L172.609473,43.1677201 L172.609473,31.210097 C172.609473,28.3286751 173.313298,27.6221165 176.022516,27.6221165 L181.058348,27.6221165 L181.058348,21.9683327 L174.234647,21.9683327 C168.220254,21.9683327 165.890064,24.1430167 165.890064,30.4487095" id="path18"></path>
                    <path d="M186.882035,48.6041013 L193.67117,48.6041013 L193.67117,45.1282302 C197.223667,47.7932062 199.64623,48.8229389 202.789304,48.8229389 L204.252377,48.8229389 L204.252377,42.7344694 L203.005636,42.7344694 C199.483534,42.7344694 196.638438,42.0749071 193.67117,40.0513167 L193.67117,21.9683327 L186.882035,21.9683327 L186.882035,48.6041013" id="path20"></path>
                    <path d="M36.8019621,19.623601 C34.3652749,19.623601 32.3897389,21.6053372 32.3897389,24.0502798 C32.3897389,26.4952223 34.3652749,28.4769585 36.8019621,28.4769585 C39.238828,28.4769585 41.2141257,26.4952223 41.2141257,24.0502798 C41.2141257,21.6053372 39.238828,19.623601 36.8019621,19.623601 Z M6.459137,2.0532112 C4.02221145,2.0532112 2.04697336,4.03524636 2.04697336,6.48018889 C2.04697336,8.92507162 4.02221145,10.9068676 6.459137,10.9068676 C8.89606255,10.9068676 10.8713006,8.92507162 10.8713006,6.48018889 C10.8713006,4.03524636 8.89606255,2.0532112 6.459137,2.0532112 L6.459137,2.0532112 Z M6.459137,37.2107325 C4.02221145,37.2107325 2.04697336,39.1927677 2.04697336,41.6377102 C2.04697336,44.0823538 4.02221145,46.0643889 6.459137,46.0643889 C8.89606255,46.0643889 10.8713006,44.0823538 10.8713006,41.6377102 C10.8713006,39.1927677 8.89606255,37.2107325 6.459137,37.2107325 L6.459137,37.2107325 Z M36.8019621,63.6302944 C39.238828,63.6302944 41.2141257,61.6481994 41.2141257,59.2033167 C41.2141257,56.758434 39.238828,54.7766978 36.8019621,54.7766978 C34.3652749,54.7766978 32.3897389,56.758434 32.3897389,59.2033167 C32.3897389,61.6481994 34.3652749,63.6302944 36.8019621,63.6302944 Z M36.8019621,30.5306839 C34.7801202,30.5306839 32.9768752,29.5973354 31.7924117,28.1382983 L12.4824689,39.3121119 C12.7600058,40.0347544 12.9182919,40.8169495 12.9182919,41.6377102 C12.9182919,42.4488444 12.7697795,43.2251799 12.4983214,43.9408268 C12.4976062,43.9426804 12.4967123,43.9445937 12.4959971,43.9464472 L31.7914582,55.1165538 C32.9756832,53.6567394 34.7796434,52.7229723 36.8019621,52.7229723 C40.3692978,52.7229723 43.2610574,55.6241854 43.2610574,59.2033167 C43.2610574,62.782448 40.3692978,65.6835415 36.8019621,65.6835415 C33.2348051,65.6835415 30.3428072,62.782448 30.3428072,59.2033167 C30.3428072,58.3919433 30.4980539,57.6182386 30.7697504,56.902532 L11.4651712,45.7271039 C10.2809462,47.1847659 8.47978697,48.1178154 6.459137,48.1178154 C2.89203962,48.1178154 -6.35178814e-15,45.2165426 -6.35178814e-15,41.6377102 C-6.35178814e-15,38.0585789 2.89203962,35.1573061 6.459137,35.1573061 C8.47209913,35.1573061 10.2695634,36.0817456 11.4542057,37.5300202 L30.7702272,26.3527386 C30.4982922,25.6361351 30.3428072,24.8623707 30.3428072,24.0502798 C30.3428072,23.2414774 30.4971599,22.4702242 30.7671878,21.7564907 L11.4635622,10.5716753 C10.2793371,12.0282012 8.47889303,12.9602941 6.459137,12.9602941 C2.89203962,12.9602941 -6.35178814e-15,10.0592604 -6.35178814e-15,6.48018889 C-6.35178814e-15,2.90105755 2.89203962,0 6.459137,0 C10.0264728,0 12.9182919,2.90105755 12.9182919,6.48018889 C12.9182919,7.2915623 12.7697795,8.0676586 12.4983214,8.78330549 C12.4973678,8.78635487 12.4959971,8.78868675 12.4950436,8.79125779 L31.7870481,19.969496 C32.9712732,18.5062137 34.7768424,17.5698756 36.8019621,17.5698756 C40.3692978,17.5698756 43.2610574,20.4714474 43.2610574,24.0502798 C43.2610574,27.6293513 40.3692978,30.5306839 36.8019621,30.5306839" id="path22"></path>
                    <polyline id="path24" points="54.9801835 12.3016885 56.425378 12.3016885 56.425378 4.8867998 54.9801835 4.8867998 54.9801835 12.3016885"></polyline>
                    <path d="M58.1453083,10.2213557 L59.1709494,10.2213557 L59.3038476,9.71193043 C60.1089848,10.1879322 60.6936181,10.3540335 61.4212809,10.3540335 C62.789001,10.3540335 63.4070079,9.7561165 63.4070079,8.41755965 L63.4070079,4.8867998 L62.0392878,4.8867998 L62.0392878,8.05205297 C62.0392878,8.82701323 61.7520368,9.11449174 61.0023236,9.11449174 C60.4731142,9.11449174 60.0535609,8.9706329 59.5130284,8.66067271 L59.5130284,4.8867998 L58.1453083,4.8867998 L58.1453083,10.2213557" id="path26"></path>
                    <path d="M65.3140685,9.11449174 L64.2437307,9.11449174 L64.2437307,10.2213557 L65.3140685,10.2213557 L65.3140685,10.9736549 C65.3140685,12.2575622 65.7878539,12.7001404 67.0125444,12.7001404 L68.2813357,12.7001404 L68.2813357,11.5493893 L67.3766738,11.5493893 C66.8248181,11.5493893 66.6817886,11.4052912 66.6817886,10.8185553 L66.6817886,10.2213557 L68.2259118,10.2213557 L68.2259118,9.11449174 L66.6817886,9.11449174 L66.6817886,4.8867998 L65.3140685,4.8867998 L65.3140685,9.11449174" id="path28"></path>
                    <path d="M69.1740785,10.2213557 L70.1997196,10.2213557 L70.3433451,9.68974771 C71.1371591,10.1879322 71.7104692,10.3540335 72.3505264,10.3540335 L72.6485047,10.3540335 L72.6485047,9.11449174 L72.3946272,9.11449174 C71.6776916,9.11449174 71.1371591,8.99257645 70.5417986,8.68285543 L70.5417986,4.8867998 L69.1740785,4.8867998 L69.1740785,10.2213557" id="path30"></path>
                    <path d="M77.3905302,6.38087487 L77.3905302,7.07810592 C76.695645,7.14441492 76.1437893,7.16659764 75.8243566,7.16659764 C74.9858459,7.16659764 74.7212412,7.01173713 74.7212412,6.53573538 C74.7212412,6.02702757 75.0299467,5.87222685 75.6586807,5.87222685 C76.2766876,5.87222685 76.7731193,6.01560736 77.3905302,6.38087487 Z M73.3642484,6.46942638 C73.3642484,7.70890838 74.026356,8.15130719 75.7909831,8.15130719 C76.1992132,8.15130719 76.7397457,8.12978218 77.3905302,8.06275568 L77.3905302,8.10759946 C77.3905302,8.9706329 77.037724,9.22522597 75.8571342,9.22522597 C75.1181482,9.22522597 74.5668885,9.12549341 73.9488816,8.91550495 L73.8499529,10.0657777 C74.6109893,10.2764837 75.2176729,10.3540335 76.0335373,10.3540335 C78.0967386,10.3540335 78.7582503,9.83384571 78.7582503,8.15130719 L78.7582503,4.8867998 L77.7439324,4.8867998 L77.5889837,5.44035138 C76.7838465,4.94240608 76.1002845,4.75388284 75.2951473,4.75388284 C73.9488816,4.75388284 73.3642484,5.29625338 73.3642484,6.46942638" id="path32"></path>
                    <path d="M79.9263249,5.07508387 L80.0258497,6.23749437 C80.8089364,5.98266213 81.4376705,5.86074685 82.4192108,5.86074685 C83.4341246,5.86074685 83.6880021,5.98266213 83.6880021,6.4138201 C83.6880021,6.7791474 83.5223262,6.87905934 82.6730882,6.96761085 L81.8900015,7.04516069 C80.5109582,7.17801785 79.9704257,7.54334516 79.9704257,8.63872916 C79.9704257,9.92239723 80.6432605,10.3540335 82.5956139,10.3540335 C83.3566503,10.3540335 84.0187579,10.2876647 84.7577439,10.0879605 L84.6695424,8.95963122 C83.8864556,9.15885718 83.3345999,9.24740869 82.5294627,9.24740869 C81.5699728,9.24740869 81.3160954,9.12549341 81.3160954,8.71651816 C81.3160954,8.37271587 81.4924985,8.28416436 82.3530596,8.19567264 L83.1361464,8.11860113 C84.5366441,7.97450313 85.0330758,7.57629039 85.0330758,6.46942638 C85.0330758,5.19652082 84.3828873,4.75388284 82.37511,4.75388284 C81.3822466,4.75388284 80.6104829,4.85385457 79.9263249,5.07508387" id="path34"></path>
                    <path d="M86.5873303,6.61280688 L86.5873303,9.11449174 L85.5175884,9.11449174 L85.5175884,10.2213557 L86.632027,10.2213557 L86.7643293,11.6818279 L87.9556463,11.6818279 L87.9556463,10.2213557 L89.4997695,10.2213557 L89.4997695,9.11449174 L87.9556463,9.11449174 L87.9556463,6.7683849 C87.9556463,6.18188808 88.0986758,6.03779008 88.6505315,6.03779008 L89.4997695,6.03779008 L89.4997695,4.8867998 L88.2864021,4.8867998 C87.0617116,4.8867998 86.5873303,5.32985632 86.5873303,6.61280688" id="path36"></path>
                    <path d="M90.5802385,10.2213557 L91.6058796,10.2213557 L91.7489091,9.68974771 C92.5433191,10.1879322 93.1166292,10.3540335 93.7566864,10.3540335 L94.0546647,10.3540335 L94.0546647,9.11449174 L93.8007872,9.11449174 C93.0838516,9.11449174 92.5433191,8.99257645 91.9473626,8.68285543 L91.9473626,4.8867998 L90.5802385,4.8867998 L90.5802385,10.2213557" id="path38"></path>
                    <path d="M94.8919835,6.69059589 L94.8919835,10.2213557 L96.2597036,10.2213557 L96.2597036,7.0558634 C96.2597036,6.28114231 96.5576818,5.99342463 97.3187182,5.99342463 C97.8592507,5.99342463 98.2674809,6.13752264 98.8187406,6.43648115 L98.8187406,10.2213557 L100.187057,10.2213557 L100.187057,4.8867998 L99.1608196,4.8867998 L99.0285173,5.40692782 C98.2233801,4.92022336 97.6387468,4.75388284 96.8997608,4.75388284 C95.5207176,4.75388284 94.8919835,5.35179987 94.8919835,6.69059589" id="path40"></path>
                    <path d="M101.531534,7.55404787 C101.531534,9.56783243 102.347399,10.3540335 104.399277,10.3540335 C105.060789,10.3540335 105.568543,10.2764837 106.185954,10.0994405 L106.097753,8.91550495 C105.590594,9.07036546 105.105485,9.14743696 104.542306,9.14743696 C103.306889,9.14743696 102.921305,8.77140694 102.921305,7.56481038 C102.921305,6.34798943 103.306889,5.96047941 104.542306,5.96047941 C105.105485,5.96047941 105.590594,6.03779008 106.097753,6.19265059 L106.185954,5.00871508 C105.568543,4.83167185 105.060789,4.75388284 104.399277,4.75388284 C102.347399,4.75388284 101.531534,5.5288431 101.531534,7.55404787" id="path42"></path>
                    <path d="M107.922571,6.61280688 L107.922571,9.11449174 L106.85283,9.11449174 L106.85283,10.2213557 L107.966672,10.2213557 L108.098975,11.6818279 L109.290292,11.6818279 L109.290292,10.2213557 L110.835011,10.2213557 L110.835011,9.11449174 L109.290292,9.11449174 L109.290292,6.7683849 C109.290292,6.18188808 109.433917,6.03779008 109.985177,6.03779008 L110.835011,6.03779008 L110.835011,4.8867998 L109.621643,4.8867998 C108.396953,4.8867998 107.922571,5.32985632 107.922571,6.61280688" id="path44"></path>
                    <path d="M111.903561,6.69059589 L111.903561,10.2213557 L113.271281,10.2213557 L113.271281,7.0558634 C113.271281,6.28114231 113.569259,5.99342463 114.330295,5.99342463 C114.870828,5.99342463 115.279058,6.13752264 115.830914,6.43648115 L115.830914,10.2213557 L117.198634,10.2213557 L117.198634,4.8867998 L116.172397,4.8867998 L116.040094,5.40692782 C115.234957,4.92022336 114.650324,4.75388284 113.911338,4.75388284 C112.532295,4.75388284 111.903561,5.35179987 111.903561,6.69059589" id="path46"></path>
                    <path d="M118.796393,10.2213557 L119.822034,10.2213557 L119.96566,9.68974771 C120.759474,10.1879322 121.33338,10.3540335 121.972841,10.3540335 L122.270819,10.3540335 L122.270819,9.11449174 L122.016942,9.11449174 C121.300006,9.11449174 120.759474,8.99257645 120.164113,8.68285543 L120.164113,4.8867998 L118.796393,4.8867998 L118.796393,10.2213557" id="path48"></path>
                    <path d="M127.255399,8.0849384 C127.179117,8.99257645 126.825714,9.24740869 125.833447,9.24740869 C124.80721,9.24740869 124.421626,8.9706329 124.332828,8.0849384 L127.255399,8.0849384 Z M122.921008,7.54334516 C122.921008,9.59001515 123.715418,10.3540335 125.822124,10.3540335 C127.818578,10.3540335 128.601665,9.65680248 128.601665,7.86376889 C128.601665,7.65378043 128.590937,7.35482192 128.568887,7.08880863 L124.332828,7.08880863 C124.44308,6.14828514 124.906139,5.88292957 126.17493,5.88292957 C126.958017,5.88292957 127.509276,5.98266213 128.204162,6.23749437 L128.292959,5.08578658 C127.531327,4.84243435 126.958017,4.75388284 126.108779,4.75388284 C123.770246,4.75388284 122.921008,5.44035138 122.921008,7.54334516" id="path50"></path>
                    <polyline id="path52" points="134.368735 11.0068393 131.655345 11.0068393 131.655345 12.3016885 138.527319 12.3016885 138.527319 11.0068393 135.81393 11.0068393 135.81393 4.8867998 134.368735 4.8867998 134.368735 11.0068393"></polyline>
                    <path d="M142.35336,8.0849384 C142.277077,8.99257645 141.923675,9.24740869 140.931408,9.24740869 C139.905171,9.24740869 139.519587,8.9706329 139.430789,8.0849384 L142.35336,8.0849384 Z M138.018969,7.54334516 C138.018969,9.59001515 138.813379,10.3540335 140.920085,10.3540335 C142.916539,10.3540335 143.699626,9.65680248 143.699626,7.86376889 C143.699626,7.65378043 143.688898,7.35482192 143.666848,7.08880863 L139.430789,7.08880863 C139.541041,6.14828514 140.0041,5.88292957 141.272891,5.88292957 C142.055978,5.88292957 142.607237,5.98266213 143.302123,6.23749437 L143.39092,5.08578658 C142.629288,4.84243435 142.055978,4.75388284 141.20674,4.75388284 C138.868206,4.75388284 138.018969,5.44035138 138.018969,7.54334516" id="path54"></path>
                    <path d="M144.768175,7.55404787 C144.768175,9.56783243 145.58404,10.3540335 147.636514,10.3540335 C148.298026,10.3540335 148.80578,10.2764837 149.423191,10.0994405 L149.334394,8.91550495 C148.827831,9.07036546 148.342126,9.14743696 147.779543,9.14743696 C146.544126,9.14743696 146.157946,8.77140694 146.157946,7.56481038 C146.157946,6.34798943 146.544126,5.96047941 147.779543,5.96047941 C148.342126,5.96047941 148.827831,6.03779008 149.334394,6.19265059 L149.423191,5.00871508 C148.80578,4.83167185 148.298026,4.75388284 147.636514,4.75388284 C145.58404,4.75388284 144.768175,5.5288431 144.768175,7.55404787" id="path56"></path>
                    <path d="M150.536438,12.7001404 L151.904158,12.7001404 L151.904158,9.83384571 C152.609771,10.2098757 153.150899,10.3540335 153.812411,10.3540335 C155.180131,10.3540335 155.797542,9.7561165 155.797542,8.41755965 L155.797542,4.8867998 L154.429822,4.8867998 L154.429822,8.05205297 C154.429822,8.82701323 154.143166,9.11449174 153.393453,9.11449174 C152.863648,9.11449174 152.444691,8.9706329 151.904158,8.66067271 L151.904158,4.8867998 L150.536438,4.8867998 L150.536438,12.7001404" id="path58"></path>
                    <path d="M157.307695,10.2213557 L158.333336,10.2213557 L158.466235,9.71193043 C159.270776,10.1879322 159.856005,10.3540335 160.583668,10.3540335 C161.951388,10.3540335 162.568799,9.7561165 162.568799,8.41755965 L162.568799,4.8867998 L161.201079,4.8867998 L161.201079,8.05205297 C161.201079,8.82701323 160.914424,9.11449174 160.164711,9.11449174 C159.635501,9.11449174 159.215948,8.9706329 158.675415,8.66067271 L158.675415,4.8867998 L157.307695,4.8867998 L157.307695,10.2213557" id="path60"></path>
                    <path d="M168.359112,7.55404787 C168.359112,8.78216945 167.983659,9.15885718 166.792342,9.15885718 C165.601025,9.15885718 165.215442,8.78216945 165.215442,7.55404787 C165.215442,6.33674859 165.601025,5.94929836 166.792342,5.94929836 C167.983659,5.94929836 168.359112,6.33674859 168.359112,7.55404787 Z M163.825671,7.55404787 C163.825671,9.60125599 164.630212,10.3540335 166.792342,10.3540335 C168.954472,10.3540335 169.748882,9.60125599 169.748882,7.55404787 C169.748882,5.51766205 168.954472,4.75388284 166.792342,4.75388284 C164.630212,4.75388284 163.825671,5.51766205 163.825671,7.55404787" id="path62"></path>
                    <polyline id="path64" points="171.037936 12.7001404 172.405656 12.7001404 172.405656 4.8867998 171.037936 4.8867998 171.037936 12.7001404"></polyline>
                    <path d="M178.229939,7.55404787 C178.229939,8.78216945 177.854486,9.15885718 176.663169,9.15885718 C175.471852,9.15885718 175.085672,8.78216945 175.085672,7.55404787 C175.085672,6.33674859 175.471852,5.94929836 176.663169,5.94929836 C177.854486,5.94929836 178.229939,6.33674859 178.229939,7.55404787 Z M173.695902,7.55404787 C173.695902,9.60125599 174.501039,10.3540335 176.663169,10.3540335 C178.825299,10.3540335 179.619709,9.60125599 179.619709,7.55404787 C179.619709,5.51766205 178.825299,4.75388284 176.663169,4.75388284 C174.501039,4.75388284 173.695902,5.51766205 173.695902,7.55404787" id="path66"></path>
                    <path d="M184.935045,6.4253001 L184.935045,8.69361794 C184.371866,9.02623918 183.930858,9.15885718 183.368275,9.15885718 C182.376008,9.15885718 182.044656,8.75992694 182.044656,7.55404787 C182.044656,6.36969382 182.376008,5.96047941 183.368275,5.96047941 C183.930858,5.96047941 184.371866,6.09339636 184.935045,6.4253001 L184.935045,6.4253001 Z M181.14059,2.77310331 L181.239519,3.94627631 C181.923677,3.72504701 182.474936,3.62513507 183.191872,3.62513507 C184.493441,3.62513507 184.935045,3.94627631 184.935045,4.8867998 L184.935045,5.27430982 C184.283664,4.90874335 183.699031,4.76536285 182.993419,4.76536285 C181.32772,4.76536285 180.654885,5.57326834 180.654885,7.56481038 C180.654885,9.54636721 181.32772,10.3540335 182.993419,10.3540335 C183.776505,10.3540335 184.405239,10.176512 185.144225,9.73411315 L185.276528,10.2213557 L186.302765,10.2213557 L186.302765,4.89804064 C186.302765,3.13837082 185.486304,2.48556501 183.291397,2.48556501 C182.496987,2.48556501 181.890303,2.56335401 181.14059,2.77310331" id="path68"></path>
                    <path d="M187.900524,10.2213557 L189.268244,10.2213557 L189.268244,4.8867998 L187.900524,4.8867998 L187.900524,10.2213557 Z M187.856423,12.4455473 L189.323668,12.4455473 L189.323668,11.1396965 L187.856423,11.1396965 L187.856423,12.4455473" id="path70"></path>
                    <path d="M194.948305,8.0849384 C194.872023,8.99257645 194.518621,9.24740869 193.526353,9.24740869 C192.500116,9.24740869 192.114532,8.9706329 192.025735,8.0849384 L194.948305,8.0849384 Z M190.613914,7.54334516 C190.613914,9.59001515 191.408324,10.3540335 193.51503,10.3540335 C195.511484,10.3540335 196.294571,9.65680248 196.294571,7.86376889 C196.294571,7.65378043 196.283844,7.35482192 196.261793,7.08880863 L192.025735,7.08880863 C192.135987,6.14828514 192.599045,5.88292957 193.867836,5.88292957 C194.650923,5.88292957 195.202183,5.98266213 195.897068,6.23749437 L195.985865,5.08578658 C195.224233,4.84243435 194.650923,4.75388284 193.801685,4.75388284 C191.463152,4.75388284 190.613914,5.44035138 190.613914,7.54334516" id="path72"></path>
                    <path d="M197.31902,5.07508387 L197.418545,6.23749437 C198.201631,5.98266213 198.830366,5.86074685 199.812502,5.86074685 C200.82682,5.86074685 201.080697,5.98266213 201.080697,6.4138201 C201.080697,6.7791474 200.915021,6.87905934 200.065783,6.96761085 L199.282696,7.04516069 C197.903653,7.17801785 197.363121,7.54334516 197.363121,8.63872916 C197.363121,9.92239723 198.035956,10.3540335 199.988309,10.3540335 C200.749941,10.3540335 201.411453,10.2876647 202.150439,10.0879605 L202.062237,8.95963122 C201.279151,9.15885718 200.727891,9.24740869 199.922158,9.24740869 C198.962668,9.24740869 198.70879,9.12549341 198.70879,8.71651816 C198.70879,8.37271587 198.885789,8.28416436 199.745755,8.19567264 L200.529437,8.11860113 C201.929935,7.97450313 202.426367,7.57629039 202.426367,6.46942638 C202.426367,5.19652082 201.775582,4.75388284 199.767805,4.75388284 C198.774942,4.75388284 198.002582,4.85385457 197.31902,5.07508387" id="path74"></path>
                </g>
            </g>
        </g>
    </g>
</svg>