<?xml version="1.0" encoding="UTF-8"?>
<svg width="50px" height="53px" viewBox="0 0 50 53" version="1.1" xmlns="http://www.w3.org/2000/svg" xmlns:xlink="http://www.w3.org/1999/xlink">
    <title>atom</title>
    <g id="Desktop" stroke="none" stroke-width="1" fill="none" fill-rule="evenodd">
        <g id="011---Shawflex" transform="translate(-206.000000, -2420.000000)" fill="#0055B8" fill-rule="nonzero">
            <g id="Values" transform="translate(0.000000, 1812.000000)">
                <g id="list" transform="translate(170.000000, 252.000000)">
                    <g id="Item-/-Feature-/-Default-Copy-5" transform="translate(0.000000, 323.000000)">
                        <g id="atom" transform="translate(36.903502, 33.452055)">
                            <path d="M24.1644647,19.8820877 C20.8464513,19.8820877 18.15667,22.5721057 18.15667,25.890411 C18.15667,29.2087162 20.8464513,31.8987342 24.1644647,31.8987342 C27.4824781,31.8987342 30.1722594,29.2087162 30.1722594,25.890411 C30.1686473,22.5736031 27.4809808,19.8857002 24.1644647,19.8820877 L24.1644647,19.8820877 Z M24.1644647,30.3693428 C21.6910365,30.3693428 19.6859268,28.3640567 19.6859268,25.890411 C19.6859268,23.4167652 21.6910365,21.4114791 24.1644647,21.4114791 C26.6378929,21.4114791 28.6430026,23.4167652 28.6430026,25.890411 C28.6403536,28.3629585 26.6367948,30.3666936 24.1644647,30.3693428 Z" id="Shape"></path>
                            <path d="M43.9268324,24.1032079 C44.2055462,24.1764447 44.4924227,24.2140327 44.7805946,24.215072 C46.1495775,24.2142656 47.3834386,23.3892728 47.9073896,22.1244125 C48.4313407,20.8595522 48.1423229,19.4036167 47.1749739,18.4348465 C47.1194837,18.3797885 47.0604981,18.329974 47.0002017,18.2788486 C47.5682114,16.2189769 47.4371322,14.4247824 46.5838069,12.9452055 C44.7486987,9.76407144 39.9297919,8.72190047 33.3177223,10.0384879 C31.1448668,3.65349749 27.8311857,0 24.1644647,0 C20.4977437,0 17.1844995,3.65306052 15.0094594,10.0389249 C8.39607893,8.7214635 3.57848296,9.76407144 1.74381168,12.9447685 C0.916702193,14.373657 0.771641259,16.1691625 1.2990164,18.1621779 C0.0146616308,19.1677863 -0.370315272,20.9462133 0.383161984,22.3930298 C1.13663924,23.8398462 2.81441685,24.5438369 4.37457037,24.0678134 C4.82810426,24.6712676 5.32489427,25.2817132 5.86013416,25.8930328 C1.41698765,30.9636206 -0.0899857383,35.6579782 1.74337475,38.8356164 C3.06072028,41.1196532 5.91212889,42.3042761 9.86285471,42.3042761 C11.5923255,42.2830753 13.315653,42.0940004 15.0085855,41.7397122 C17.1831887,48.1264505 20.4973068,51.7808219 24.1644647,51.7808219 C25.8213052,51.7808219 27.4554254,51.0038911 28.9239489,49.541793 C30.4145608,50.1949748 32.1589704,49.6946841 33.0769132,48.3507369 C33.9948561,47.0067898 33.8264026,45.1997453 32.6758713,44.0486561 C32.6208181,43.9931611 32.5618325,43.9429097 32.5037207,43.8922213 C32.7899102,43.2153563 33.0638656,42.4939206 33.3225285,41.7397122 C35.0146866,42.0942305 36.7373119,42.2833087 38.4660747,42.3042761 C42.4163635,42.3042761 45.2682091,41.1192162 46.5855546,38.8356164 C48.4206628,35.6579782 46.9119417,30.9636206 42.4696691,25.8934697 C42.9852471,25.3048726 43.4719877,24.7062251 43.9268324,24.1032079 Z M46.0931339,22.1429651 C45.3675206,22.8666016 44.1932317,22.8666016 43.4676184,22.1429651 L43.4676184,22.1429651 C42.7432036,21.4179024 42.7435193,20.2428656 43.4683236,19.5181923 C44.1931279,18.793519 45.3680613,18.793519 46.0928656,19.5181923 C46.81767,20.2428656 46.8179857,21.4179024 46.0935708,22.1429651 L46.0931339,22.1429651 Z M45.2607813,13.7094642 C45.8589391,14.7481394 45.9742888,16.0393827 45.6142581,17.5547911 C44.1383937,17.1794386 42.5936254,17.8362159 41.8398431,19.1595302 C41.0860609,20.4828445 41.3089613,22.146693 42.3844676,23.2249003 C42.4395209,23.2803954 42.4985065,23.3302098 42.5566182,23.3813352 C42.2018306,23.843357 41.8272355,24.3018831 41.4328329,24.7569135 C39.5586311,22.8106087 37.5173334,21.0324677 35.3324089,19.4429339 C35.0470358,16.7568014 34.5295232,14.1004415 33.7856749,11.5036449 C39.5479146,10.389374 43.8092981,11.1929599 45.2607813,13.7090272 L45.2607813,13.7094642 Z M32.2865662,39.9529461 C30.1593086,39.4338433 28.0739648,38.755952 26.0480722,37.9249731 C27.3523098,37.2944269 28.6513042,36.6092596 29.9258306,35.8734038 C31.2104063,35.1305566 32.4534737,34.3475082 33.6397401,33.5369308 C33.3496721,35.7064221 32.897346,37.8511066 32.2865662,39.9529461 Z M16.0423631,39.9529461 C15.431107,37.8511494 14.9783421,35.7064619 14.6878785,33.5369308 C15.8772034,34.3475082 17.1198338,35.1314306 18.4039726,35.8734038 C19.6771882,36.6092596 20.9748718,37.2953008 22.2812941,37.9249731 C20.2552534,38.7559558 18.1697641,39.4338469 16.0423631,39.9529461 Z M16.0423631,11.8278758 C18.1696392,12.3469139 20.2549877,13.0248067 22.2808572,13.8558488 C20.9761826,14.486395 19.6776251,15.1715623 18.4030988,15.9096029 C17.118523,16.6524501 15.8754557,17.4354985 14.6870046,18.2460759 C14.9776018,16.0757781 15.4306604,13.9303526 16.0423631,11.8278758 L16.0423631,11.8278758 Z M12.804271,30.2749575 C11.0697784,28.9392368 9.43940163,27.4734923 7.92725248,25.890411 C9.43953674,24.3074689 11.0699026,22.8417343 12.804271,21.5058644 C12.6963492,22.947862 12.6391113,24.4173886 12.6391113,25.890411 C12.6391113,27.3634333 12.6954753,28.8312121 12.804271,30.2749575 Z M19.169038,34.548514 C17.5139451,33.5928628 15.930072,32.5668597 14.4471298,31.4997815 C14.2644928,29.6684446 14.1683681,27.7855453 14.1683681,25.890411 C14.1683681,23.9952766 14.2644928,22.1128143 14.4471298,20.2810404 C15.9287612,19.2148361 17.5130713,18.188396 19.169038,17.232308 C20.8075275,16.2853962 22.4870884,15.4245674 24.1649016,14.6638044 C25.8440256,15.4250043 27.5231496,16.2858332 29.1616391,17.232308 C30.8167319,18.1879591 32.4006051,19.2139622 33.8835473,20.2810404 C34.0661843,22.1123773 34.162309,23.9952766 34.162309,25.890411 C34.162309,27.7855453 34.0661843,29.6680076 33.8835473,31.4997815 C32.4019159,32.5659858 30.8176058,33.5924259 29.1616391,34.548514 C27.5231496,35.4954257 25.8435887,36.3562546 24.1657755,37.1170175 C22.4857776,36.3558176 20.8066536,35.4949887 19.1681641,34.548514 L19.169038,34.548514 Z M32.2874401,11.826128 C32.8986962,13.9279246 33.3514611,16.0726122 33.6419247,18.2421432 C32.4525998,17.4315658 31.2099694,16.6476435 29.9280152,15.9056702 C28.6517412,15.1715623 27.3540575,14.4855211 26.0476352,13.8558488 C28.073676,13.0248661 30.1591652,12.346975 32.2865662,11.8278758 L32.2874401,11.826128 Z M35.5246584,21.5058644 C37.259151,22.8415852 38.8895277,24.3073296 40.4016769,25.890411 C38.8893926,27.473353 37.2590268,28.9390876 35.5246584,30.2749575 C35.6325802,28.8329599 35.6898181,27.3634333 35.6898181,25.890411 C35.6898181,24.4173886 35.6334541,22.9496098 35.5246584,21.5058644 Z M24.1644647,1.52939136 C27.0648095,1.52939136 29.8939347,4.81933067 31.8173028,10.3670886 C29.1954589,11.0189226 26.634842,11.8961237 24.1640277,12.9889024 C21.6935624,11.8960004 19.1332248,11.0187949 16.5116265,10.3670886 C18.4354316,4.81889371 21.2641198,1.52939136 24.1644647,1.52939136 Z M2.06845106,22.1429651 L2.06845106,22.1429651 C1.44003279,21.516392 1.34184401,20.5330645 1.83395662,19.7945826 C2.32606923,19.0561007 3.271352,18.7682484 4.09148081,19.1071339 C4.91160962,19.4460193 5.37804883,20.3172092 5.20543087,21.1877095 C5.03281291,22.0582097 4.26923919,22.6854483 3.38186422,22.6856963 C2.88897673,22.6877148 2.4158029,22.4922596 2.06801413,22.1429651 L2.06845106,22.1429651 Z M5.77580657,18.4348465 C4.97215878,17.6325364 3.81990312,17.2864848 2.70724349,17.513279 C2.35420362,16.0162233 2.47217487,14.7385261 3.06771117,13.711649 C4.51963131,11.1942709 8.78101473,10.3906849 14.5432545,11.5053928 C13.7993829,14.1023545 13.2817264,16.7588488 12.9960835,19.4451188 C10.8110967,21.0329684 8.76964671,22.8095064 6.89522258,24.7542917 C6.46965225,24.2631385 6.07204547,23.7748986 5.70240224,23.2895717 C5.72643342,23.2668493 5.75221232,23.2458748 5.77580657,23.2227154 C7.09647278,21.8995108 7.09647278,19.7567403 5.77580657,18.4335356 L5.77580657,18.4348465 Z M3.06683731,38.0709208 C1.61884955,35.5574753 3.05285553,31.4635131 6.89740723,27.0265303 C8.77125649,28.9719172 10.8121149,30.7491803 12.9965204,32.337888 C13.2818936,35.0240205 13.7994062,37.6803804 14.5432545,40.277177 C8.7805778,41.390574 4.51919438,40.587425 3.06771117,38.0709208 L3.06683731,38.0709208 Z M31.5944683,47.7563378 C30.9678401,48.3850439 29.9843308,48.4833405 29.2456882,47.991086 C28.5070456,47.4988315 28.219115,46.5532077 28.5580632,45.7327827 C28.8970114,44.9123576 29.7683801,44.4457678 30.6390332,44.6184904 C31.5096864,44.791213 32.1369899,45.5551135 32.137136,46.4428091 C32.1372648,46.9352357 31.9421082,47.4076128 31.5944683,47.7563378 Z M30.2836767,43.0576105 C28.9680173,43.0575145 27.7714925,43.8198538 27.2155603,45.0123928 C26.6596282,46.2049318 26.8450165,47.611598 27.690931,48.6193515 C26.5549116,49.7017236 25.3717037,50.2514306 24.1666493,50.2514306 C21.2663045,50.2514306 18.4371793,46.9614912 16.5138112,41.4137333 C19.1356551,40.7618993 21.696272,39.8846983 24.1670863,38.7919195 C26.6381268,39.884888 29.1990506,40.762094 31.8212352,41.4137333 C31.6071393,42.0276747 31.3843047,42.615398 31.1509838,43.1725334 C30.867338,43.0968032 30.5750711,43.0581735 30.281492,43.0576105 L30.2836767,43.0576105 Z M45.2634028,38.0709208 C43.8114827,40.587862 39.5500993,41.3918849 33.7878595,40.277177 C34.5317311,37.6802153 35.0493877,35.023721 35.3350305,32.337451 C37.5185825,30.7488515 39.558567,28.9717317 41.4315221,27.0265303 C45.2760738,31.4635131 46.7100798,35.5574753 45.2612182,38.0709208 L45.2634028,38.0709208 Z" id="Shape"></path>
                        </g>
                    </g>
                </g>
            </g>
        </g>
    </g>
</svg>