<?xml version="1.0" encoding="UTF-8"?>
<svg width="50px" height="50px" viewBox="0 0 50 50" version="1.1" xmlns="http://www.w3.org/2000/svg" xmlns:xlink="http://www.w3.org/1999/xlink">
    <title>intersection</title>
    <g id="Desktop" stroke="none" stroke-width="1" fill="none" fill-rule="evenodd">
        <g id="011---Shawflex" transform="translate(-1147.000000, -2423.000000)" fill="#0055B8" fill-rule="nonzero">
            <g id="Values" transform="translate(0.000000, 1812.000000)">
                <g id="list" transform="translate(170.000000, 252.000000)">
                    <g id="Item-/-Feature-/-Default-Copy-3" transform="translate(940.000000, 323.000000)">
                        <g id="Icon-/-Tick" transform="translate(37.766440, 36.904110)">
                            <g id="intersection" transform="translate(-0.000000, 0.000000)">
                                <path d="M16.395818,31.0684932 L0.862937788,31.0684932 C0.386596129,31.0684932 0,31.4542603 0,31.9315068 C0,32.4087534 0.386596129,32.7945205 0.862937788,32.7945205 L15.5328802,32.7945205 L15.5328802,47.4657534 C15.5328802,47.943 15.9194763,48.3287671 16.395818,48.3287671 C16.8721596,48.3287671 17.2587558,47.943 17.2587558,47.4657534 L17.2587558,31.9315068 C17.2587558,31.4542603 16.8721596,31.0684932 16.395818,31.0684932 Z" id="Path"></path>
                                <path d="M31.9286982,17.260274 L47.4615784,17.260274 C47.93792,17.260274 48.3245162,16.8745068 48.3245162,16.3972603 C48.3245162,15.9200137 47.93792,15.5342466 47.4615784,15.5342466 L32.791636,15.5342466 L32.791636,0.863013699 C32.791636,0.385767123 32.4050398,0 31.9286982,0 C31.4523565,0 31.0657604,0.385767123 31.0657604,0.863013699 L31.0657604,16.3972603 C31.0657604,16.8745068 31.4523565,17.260274 31.9286982,17.260274 Z" id="Path"></path>
                                <path d="M16.395818,0 C15.9194763,0 15.5328802,0.385767123 15.5328802,0.863013699 L15.5328802,15.5342466 L0.862937788,15.5342466 C0.386596129,15.5342466 0,15.9200137 0,16.3972603 C0,16.8745068 0.386596129,17.260274 0.862937788,17.260274 L16.395818,17.260274 C16.8721596,17.260274 17.2587558,16.8745068 17.2587558,16.3972603 L17.2587558,0.863013699 C17.2587558,0.385767123 16.8721596,0 16.395818,0 Z" id="Path"></path>
                                <path d="M47.4615784,31.0684932 L31.9286982,31.0684932 C31.4523565,31.0684932 31.0657604,31.4542603 31.0657604,31.9315068 L31.0657604,47.4657534 C31.0657604,47.943 31.4523565,48.3287671 31.9286982,48.3287671 C32.4050398,48.3287671 32.791636,47.943 32.791636,47.4657534 L32.791636,32.7945205 L47.4615784,32.7945205 C47.93792,32.7945205 48.3245162,32.4087534 48.3245162,31.9315068 C48.3245162,31.4542603 47.93792,31.0684932 47.4615784,31.0684932 Z" id="Path"></path>
                                <rect id="Rectangle" x="0" y="23.3013699" width="4.31468894" height="1.7260274"></rect>
                                <rect id="Rectangle" x="31.9286982" y="23.3013699" width="4.31468894" height="1.7260274"></rect>
                                <rect id="Rectangle" x="6.04056452" y="23.3013699" width="4.31468894" height="1.7260274"></rect>
                                <rect id="Rectangle" x="37.9692627" y="23.3013699" width="4.31468894" height="1.7260274"></rect>
                                <rect id="Rectangle" x="12.081129" y="23.3013699" width="4.31468894" height="1.7260274"></rect>
                                <rect id="Rectangle" x="44.0098272" y="23.3013699" width="4.31468894" height="1.7260274"></rect>
                                <rect id="Rectangle" x="23.2993203" y="0" width="1.72587558" height="4.31506849"></rect>
                                <rect id="Rectangle" x="23.2993203" y="31.9315068" width="1.72587558" height="4.31506849"></rect>
                                <rect id="Rectangle" x="23.2993203" y="6.04109589" width="1.72587558" height="4.31506849"></rect>
                                <rect id="Rectangle" x="23.2993203" y="37.9726027" width="1.72587558" height="4.31506849"></rect>
                                <rect id="Rectangle" x="23.2993203" y="12.0821918" width="1.72587558" height="4.31506849"></rect>
                                <rect id="Rectangle" x="23.2993203" y="44.0136986" width="1.72587558" height="4.31506849"></rect>
                            </g>
                        </g>
                    </g>
                </g>
            </g>
        </g>
    </g>
</svg>