<?xml version="1.0" encoding="UTF-8"?>
<svg width="52px" height="49px" viewBox="0 0 52 49" version="1.1" xmlns="http://www.w3.org/2000/svg" xmlns:xlink="http://www.w3.org/1999/xlink">
    <title>layer</title>
    <g id="Desktop" stroke="none" stroke-width="1" fill="none" fill-rule="evenodd">
        <g id="011---Shawflex" transform="translate(-1146.000000, -2100.000000)" fill="#0055B8" fill-rule="nonzero">
            <g id="Values" transform="translate(0.000000, 1812.000000)">
                <g id="list" transform="translate(170.000000, 252.000000)">
                    <g id="Item-/-Feature-/-Default-Copy-2" transform="translate(940.000000, 0.000000)">
                        <g id="Icon-/-Tick" transform="translate(36.903502, 36.041096)">
                            <g id="layer" transform="translate(0.000000, 0.000000)">
                                <path d="M50.1047366,32.7749775 L43.6985451,28.9570846 L50.1047366,25.1391917 C50.3536674,24.9908072 50.5062743,24.7223166 50.5062743,24.4325401 C50.5062743,24.1427636 50.3536674,23.874273 50.1047366,23.7258886 L43.6985451,19.9079957 L50.1047366,16.0901028 C50.4949442,15.8575001 50.6227513,15.352602 50.3901691,14.9622572 C50.3202504,14.8448247 50.2220559,14.7467244 50.1047366,14.6767996 L25.6743455,0.115992867 C25.414824,-0.0386642891 25.0914503,-0.0386642891 24.8320317,0.115992867 L0.401640612,14.6767996 C0.0114329766,14.9094023 -0.116374162,15.4143004 0.116208096,15.8046452 C0.186126724,15.9220776 0.284321267,16.020178 0.401640612,16.0901028 L6.80783205,19.9079957 L0.40153779,23.7258886 C0.0113301551,23.9584913 -0.116476983,24.4633893 0.116105275,24.8537341 C0.186023903,24.9711666 0.284218446,25.0692669 0.40153779,25.1391917 L6.80772922,28.9570846 L0.40153779,32.7749775 C0.0113301551,33.0075802 -0.116476983,33.5124782 0.116105275,33.902823 C0.186023903,34.0202555 0.284218446,34.1183559 0.40153779,34.1882807 L24.8319289,48.7490874 C25.091656,48.9027162 25.4145155,48.9027162 25.6742427,48.7490874 L50.1046337,34.1882807 C50.4948414,33.9556779 50.6226485,33.4507799 50.3900662,33.0604351 C50.3201476,32.9431054 50.2220559,32.8450051 50.1047366,32.7749775 Z M2.42917799,15.3834512 L25.2530858,1.78020259 L48.0769935,15.3834512 L25.2530858,28.9866998 L2.42917799,15.3834512 Z M2.42917799,24.4325401 L8.41421252,20.8663764 L24.8319289,30.6558454 C25.0914503,30.8105025 25.4147212,30.8105025 25.6742427,30.6558454 L42.091959,20.8663764 L48.0769935,24.4325401 L25.2530858,38.0357887 L2.42917799,24.4325401 Z M25.2530858,47.0848777 L2.42917799,33.4816291 L8.41421252,29.9154654 L24.8319289,39.7049343 C25.0914503,39.8595915 25.4147212,39.8595915 25.6742427,39.7049343 L42.091959,29.9154654 L48.0769935,33.4816291 L25.2530858,47.0848777 Z" id="Shape"></path>
                            </g>
                        </g>
                    </g>
                </g>
            </g>
        </g>
    </g>
</svg>